{
	"patcher" : 	{
		"fileversion" : 1,
		"appversion" : 		{
			"major" : 8,
			"minor" : 1,
			"revision" : 8,
			"architecture" : "x64",
			"modernui" : 1
		}
,
		"classnamespace" : "box",
		"rect" : [ 956.0, 276.0, 1568.0, 1038.0 ],
		"bglocked" : 0,
		"openinpresentation" : 0,
		"default_fontsize" : 12.0,
		"default_fontface" : 0,
		"default_fontname" : "Arial",
		"gridonopen" : 1,
		"gridsize" : [ 15.0, 15.0 ],
		"gridsnaponopen" : 1,
		"objectsnaponopen" : 1,
		"statusbarvisible" : 2,
		"toolbarvisible" : 1,
		"lefttoolbarpinned" : 0,
		"toptoolbarpinned" : 0,
		"righttoolbarpinned" : 0,
		"bottomtoolbarpinned" : 0,
		"toolbars_unpinned_last_save" : 0,
		"tallnewobj" : 0,
		"boxanimatetime" : 200,
		"enablehscroll" : 1,
		"enablevscroll" : 1,
		"devicewidth" : 0.0,
		"description" : "",
		"digest" : "",
		"tags" : "",
		"style" : "",
		"subpatcher_template" : "",
		"assistshowspatchername" : 0,
		"boxes" : [ 			{
				"box" : 				{
					"bubble" : 1,
					"id" : "obj-5",
					"maxclass" : "comment",
					"numinlets" : 1,
					"numoutlets" : 0,
					"patching_rect" : [ 56.5, 36.250001549720764, 222.666702061891556, 26.0 ],
					"text" : "첫 번째랑 세 번째 노트를 변경하겠다"
				}

			}
, 			{
				"box" : 				{
					"id" : "obj-4",
					"maxclass" : "comment",
					"numinlets" : 1,
					"numoutlets" : 0,
					"patching_rect" : [ 78.833336770534515, 91.250003516674042, 91.33333158493042, 20.0 ],
					"text" : "original set"
				}

			}
, 			{
				"box" : 				{
					"id" : "obj-3",
					"maxclass" : "comment",
					"numinlets" : 1,
					"numoutlets" : 0,
					"patching_rect" : [ 19.500001668930054, 7.91666853427887, 108.666665434837341, 20.0 ],
					"text" : "replacing indices"
				}

			}
, 			{
				"box" : 				{
					"id" : "obj-2",
					"maxclass" : "comment",
					"numinlets" : 1,
					"numoutlets" : 0,
					"patching_rect" : [ 204.166702061891556, 91.250003516674042, 91.33333158493042, 20.0 ],
					"text" : "replacing set"
				}

			}
, 			{
				"box" : 				{
					"fontface" : 0,
					"fontname" : "Arial",
					"fontsize" : 12.0,
					"id" : "obj-32",
					"maxclass" : "bach.tree",
					"numinlets" : 1,
					"numoutlets" : 5,
					"out" : "nnnn",
					"outlettype" : [ "", "", "", "", "bang" ],
					"patching_rect" : [ 19.500001668930054, 218.116675674915314, 156.999998718500137, 34.666664123535156 ],
					"versionnumber" : 80100,
					"whole_tree_data_0000000000" : [ -1, 2, -3, 4, 5 ],
					"whole_tree_data_count" : [ 1 ]
				}

			}
, 			{
				"box" : 				{
					"id" : "obj-18",
					"maxclass" : "message",
					"numinlets" : 2,
					"numoutlets" : 1,
					"outlettype" : [ "" ],
					"patching_rect" : [ 19.500001668930054, 36.250001549720764, 29.5, 22.0 ],
					"text" : "1 3"
				}

			}
, 			{
				"box" : 				{
					"id" : "obj-16",
					"maxclass" : "message",
					"numinlets" : 2,
					"numoutlets" : 1,
					"outlettype" : [ "" ],
					"patching_rect" : [ 204.166702061891556, 119.583336532115936, 75.0, 22.0 ],
					"text" : "-1 -2 -3 -4 -5"
				}

			}
, 			{
				"box" : 				{
					"id" : "obj-12",
					"maxclass" : "message",
					"numinlets" : 2,
					"numoutlets" : 1,
					"outlettype" : [ "" ],
					"patching_rect" : [ 78.833336770534515, 119.583336532115936, 55.0, 22.0 ],
					"text" : "1 2 3 4 5"
				}

			}
, 			{
				"box" : 				{
					"id" : "obj-8",
					"maxclass" : "newobj",
					"numinlets" : 3,
					"numoutlets" : 1,
					"outlettype" : [ "" ],
					"patching_rect" : [ 19.500001668930054, 172.58332422375679, 138.0, 22.0 ],
					"text" : "kcac.insert_interpolation"
				}

			}
 ],
		"lines" : [ 			{
				"patchline" : 				{
					"destination" : [ "obj-8", 1 ],
					"source" : [ "obj-12", 0 ]
				}

			}
, 			{
				"patchline" : 				{
					"destination" : [ "obj-8", 2 ],
					"source" : [ "obj-16", 0 ]
				}

			}
, 			{
				"patchline" : 				{
					"destination" : [ "obj-8", 0 ],
					"source" : [ "obj-18", 0 ]
				}

			}
, 			{
				"patchline" : 				{
					"destination" : [ "obj-32", 0 ],
					"source" : [ "obj-8", 0 ]
				}

			}
 ],
		"dependency_cache" : [ 			{
				"name" : "kcac.insert_interpolation.maxpat",
				"bootpath" : "~/Documents/Max 8/Packages/Algorithimic_Composition_Library_By_JinwoongKim/patchers",
				"patcherrelativepath" : ".",
				"type" : "JSON",
				"implicit" : 1
			}
, 			{
				"name" : "bach.subs.mxe64",
				"type" : "mx64"
			}
, 			{
				"name" : "bach.reg.mxe64",
				"type" : "mx64"
			}
, 			{
				"name" : "bach.nth.mxe64",
				"type" : "mx64"
			}
, 			{
				"name" : "bach.tree.mxe64",
				"type" : "mx64"
			}
 ],
		"autosave" : 0
	}

}
